PathFileType	4	(X/Y/Z)	Patient4_TMGait_0pt2_01_left_09.trc.trc
DataRate	CameraRate	NumFrames	NumMarkers	Units	OrigDataRate	OrigDataStartFrame	OrigNumFrames
42.296072507553	42.296072507553	4	33	mm	42.296072507553	89	       141
Frame#	Time	Sacral			L.Shoulder			Chest			R.Shoulder			Neck			R.ASIS			L.ASIS			R.Thigh.Superior			R.Thigh.Lateral			R.Thigh.Inferior			R.Patella			L.Thigh.Superior			L.Thigh.Lateral			L.Thigh.Inferior			L.Patella			L.Shank.Superior			L.Shank.Lateral			L.Shank.Inferior			R.Shank.Superior			R.Shank.Lateral			R.Shank.Inferior			R.Heel			R.Midfoot.Superior			R.Midfoot.Lateral			R.Toe			L.Heel			L.Midfoot.Lateral			L.Midfoot.Superior			L.Toe			L.Elbow			L.Wrist			R.Elbow			R.Wrist			
		X1	Y1	Z1	X2	Y2	Z2	X3	Y3	Z3	X4	Y4	Z4	X5	Y5	Z5	X6	Y6	Z6	X7	Y7	Z7	X8	Y8	Z8	X9	Y9	Z9	X10	Y10	Z10	X11	Y11	Z11	X12	Y12	Z12	X13	Y13	Z13	X14	Y14	Z14	X15	Y15	Z15	X16	Y16	Z16	X17	Y17	Z17	X18	Y18	Z18	X19	Y19	Z19	X20	Y20	Z20	X21	Y21	Z21	X22	Y22	Z22	X23	Y23	Z23	X24	Y24	Z24	X25	Y25	Z25	X26	Y26	Z26	X27	Y27	Z27	X28	Y28	Z28	X29	Y29	Z29	X30	Y30	Z30	X31	Y31	Z31	X32	Y32	Z32	X33	Y33	Z33	

89	21.940571428571	805.308902614334	1008.133462864478	493.381115250436	1006.080233063122	1433.691624915625	335.698445760694	1074.919646484808	1372.916243297692	515.225099953605	958.083493306522	1448.460990580107	666.989288158364	952.752845626265	1497.862084728348	486.443245341814	1016.060670049255	949.685747739800	648.978073562051	1041.701915752441	959.686831969476	374.885085990959	1059.474442763825	746.510309776279	613.855747018246	974.291223863583	634.652099116527	666.306356223254	1052.964401738239	584.571787235360	587.758979762791	1052.500578556846	501.108831220027	590.369135987096	1032.738813919464	726.911972167614	394.223534534011	920.429692651655	636.546911358968	314.478609946698	974.461183245685	539.754847863688	377.683060878637	956.635600281755	472.194019594448	380.494404662249	916.673983742468	410.609950195863	364.464604939319	807.503846801322	320.100326961291	302.934733730400	834.532466735308	194.544077811608	363.856878174567	1031.836658959729	410.704962804077	596.297232515710	967.222373538243	302.280848387013	658.766097455928	1014.998604769839	210.852140394367	593.350558199520	888.403024812034	42.761268228029	564.577895460852	1060.343504859852	97.915462940287	596.305740676209	973.914592220130	37.154278929221	636.625557724579	1181.083090660154	47.918166982718	619.749300345464	680.476042685508	53.633686047564	389.554843504487	758.024039600293	43.711468155306	313.668571090869	845.252318016305	98.506796901462	343.639462100082	969.121297414549	37.963497563451	320.014730569092	1172.062241694703	1153.757172421542	189.026375730945	1431.251438595796	1168.109747037333	209.360036109363	817.770604916878	1131.364199460915	767.591484824265	803.325213782257	868.705038745067	771.385628559816	
90	21.964214285714	805.224614873716	1007.979326535616	500.658350908666	1003.366019852208	1433.423941749941	339.806894009058	1074.641380569311	1373.095670918200	518.592498047477	959.358349463093	1448.462537369999	671.669137405999	952.116203027684	1497.900556862985	490.972679213082	1017.637797517600	949.658383518215	653.862724323098	1040.372545061697	959.733627094019	379.533681708226	1059.912864233841	746.153595836433	617.819967298079	974.496654066059	634.259174772432	670.216129628657	1052.495415934645	584.209421513247	591.116985473284	1051.473051294739	500.420585684755	593.203789615593	1033.954346155992	727.412630428773	398.074749362700	922.044578550084	636.349081051933	318.817170351146	978.086244609755	539.324194800785	380.624668092498	960.984190587135	470.507911318782	382.595381321965	918.776549978645	409.752474175278	366.621223543105	807.241825810027	322.002094327346	305.164092656944	832.782239070464	195.373415314483	364.497230410342	1030.160668741463	410.082738192280	598.576452189968	964.959610504496	301.707300421731	660.592505767360	1011.654826788655	210.398187964684	594.246847251674	883.874349910588	42.681967375128	564.678296195138	1055.875837608490	97.894348474413	596.568492992388	969.408511961980	37.070678910164	636.713113580785	1176.608547981930	47.776283253508	619.838328884412	676.398682797988	57.036840225735	389.276593280138	753.756332973290	45.562386022394	313.504432979099	841.811562001114	99.002592224508	343.444882503193	964.478494704821	37.620991441417	320.088932286944	1163.341779045697	1148.249752984919	193.500313051960	1423.209705959344	1153.979932566147	213.549317549586	824.821711327378	1129.415277130177	776.637546570121	815.627783784854	866.707040300924	783.609296987568	
91	21.987857142857	805.072783194298	1007.640375471916	507.850151740348	1000.228434515817	1433.137284732374	343.862174265586	1074.093429163851	1373.215682282682	521.809897343947	960.449088516354	1448.262371540899	676.317141207376	951.177073240828	1497.840350605118	495.508241052519	1019.183785067836	949.515469850744	658.545320732988	1038.921024931168	959.737882786126	384.001323010590	1060.463049880414	745.726786837896	621.635043390772	974.853030726734	633.762803891994	673.986920522975	1052.223414431061	583.790595919327	594.363433604993	1050.679046386374	499.617543191345	595.987899895593	1035.819800774369	728.005181850546	401.890220747351	924.797782097852	635.822194659973	323.130483582728	983.171436884092	538.791012645100	383.653275893999	966.918623449896	468.555092432213	384.689093892277	922.180334222897	408.642706724382	368.869725548817	808.101355706364	324.141364689177	307.511468012887	831.618753640026	196.477484312354	365.272546046453	1028.641782364166	409.355207612291	600.797397209743	962.773723280414	301.090079151265	662.352576472723	1008.342046466590	209.888983157827	595.111612529807	879.275415937239	42.628698262639	564.752023377409	1051.363180680098	97.860248154675	596.808052643583	964.827875271922	37.008750537035	636.785466586358	1172.061496886046	47.590188477929	619.910953490219	672.470673652245	61.473164264570	389.153141758772	749.502532161763	48.178101139574	313.460705125438	838.562563239770	99.831808414779	343.360101464051	959.626430713900	37.223327371640	320.232977971553	1152.837821010436	1142.059470546745	198.010729940984	1413.108534960055	1137.469468804775	217.670898182350	832.824867335755	1126.897822256816	785.567881984594	829.973788609529	864.270826753393	795.528394178889	
92	22.011500000000	804.821176383538	1007.105096054575	514.913106404701	996.733343114793	1432.799260888402	347.861001787007	1073.291467047793	1373.229671970090	524.885462825379	961.358687132395	1447.839662303541	680.910085181231	949.957521773264	1497.651654477950	500.030691635640	1020.654891566963	949.249079564213	663.020842455063	1037.331967846540	959.661339859635	388.287530056877	1061.138139916174	745.245257132040	625.289136431013	975.415301072694	633.153050357273	677.605008242975	1052.217084202700	583.318127278993	597.478300402393	1050.230358440863	498.683138378478	598.706402697903	1038.337824494531	728.714384656779	405.703558353741	928.794710822309	634.980422605621	327.401755113980	989.802991987367	538.223361611013	386.821975811257	974.500880163223	466.419257391274	386.824558420708	927.002536877913	407.335449168647	371.248084821610	810.218929397787	326.614190161382	310.034110688154	831.126699497845	197.971540904262	366.257600484564	1027.354053715806	408.509585550616	602.943066114026	960.717883493328	300.431590308255	664.035407653580	1005.087945801411	209.315757422524	595.942000766124	874.607396284328	42.601066357983	564.807085835295	1046.804184266017	97.807131536357	597.020970353194	960.174167201126	36.964669127075	636.849569814507	1167.448445285831	47.353922730717	619.973646776432	668.783437279740	67.159705103684	389.339761282354	745.299955544369	51.783736506368	313.651208676179	835.560550976226	101.132498243614	343.466661055717	954.542001525561	36.772577722686	320.438289772845	1140.579014966979	1135.264654888079	202.641252314151	1400.727100398033	1118.551904449413	221.805538727132	841.895480042048	1123.802902856671	794.291363657730	846.585818968059	861.458940871602	806.992475972556	
